<svg width="133" height="133" viewBox="0 0 133 133" fill="none" xmlns="http://www.w3.org/2000/svg">
<g filter="url(#filter0_d_471_181)">
<path opacity="0.4" d="M66.5002 29.3706V118.203C65.5581 118.203 64.5606 118.037 63.7848 117.594L63.5631 117.483C52.9231 111.664 34.3585 105.568 22.3331 103.961L20.726 103.74C15.406 103.075 11.0835 98.0872 11.0835 92.7672V25.8239C11.0835 19.2293 16.4589 14.2418 23.0535 14.796C34.691 15.7381 52.3135 21.6122 62.1777 27.7635L63.5631 28.5947C64.3943 29.0935 65.4473 29.3706 66.5002 29.3706Z" fill="#C76E7A"/>
<path d="M121.917 25.88V92.7679C121.917 98.0879 117.594 103.075 112.274 103.74L110.445 103.962C98.3646 105.569 79.7446 111.72 69.1046 117.595C68.3842 118.038 67.4975 118.204 66.5 118.204V29.3712C67.5529 29.3712 68.6058 29.0941 69.4371 28.5954L70.3792 27.9858C80.2433 21.7791 97.9213 15.8496 109.559 14.8521H109.891C116.486 14.2979 121.917 19.23 121.917 25.88Z" fill="#C76E7A"/>
<path d="M42.9478 51.2051H30.479C28.2069 51.2051 26.3228 49.3209 26.3228 47.0488C26.3228 44.7767 28.2069 42.8926 30.479 42.8926H42.9478C45.2198 42.8926 47.104 44.7767 47.104 47.0488C47.104 49.3209 45.2198 51.2051 42.9478 51.2051Z" fill="#C76E7A"/>
<path d="M47.104 67.8301H30.479C28.2069 67.8301 26.3228 65.9459 26.3228 63.6738C26.3228 61.4017 28.2069 59.5176 30.479 59.5176H47.104C49.3761 59.5176 51.2603 61.4017 51.2603 63.6738C51.2603 65.9459 49.3761 67.8301 47.104 67.8301Z" fill="#C76E7A"/>
</g>
<defs>
<filter id="filter0_d_471_181" x="-4" y="0" width="141" height="144" filterUnits="userSpaceOnUse" color-interpolation-filters="sRGB">
<feFlood flood-opacity="0" result="BackgroundImageFix"/>
<feColorMatrix in="SourceAlpha" type="matrix" values="0 0 0 0 0 0 0 0 0 0 0 0 0 0 0 0 0 0 127 0" result="hardAlpha"/>
<feOffset dy="7"/>
<feGaussianBlur stdDeviation="2"/>
<feComposite in2="hardAlpha" operator="out"/>
<feColorMatrix type="matrix" values="0 0 0 0 0 0 0 0 0 0 0 0 0 0 0 0 0 0 0.25 0"/>
<feBlend mode="normal" in2="BackgroundImageFix" result="effect1_dropShadow_471_181"/>
<feBlend mode="normal" in="SourceGraphic" in2="effect1_dropShadow_471_181" result="shape"/>
</filter>
</defs>
</svg>
