<svg width="1920" height="708" viewBox="0 0 1920 708" fill="none" xmlns="http://www.w3.org/2000/svg">
<mask id="mask0_531_51" style="mask-type:alpha" maskUnits="userSpaceOnUse" x="0" y="0" width="1920" height="708">
<rect width="1920" height="708" fill="white"/>
</mask>
<g mask="url(#mask0_531_51)">
<path d="M3.11121 -531H1923.11C1923.11 -531 2600.11 717.927 1923.11 430.723C1246.11 143.519 460.111 653.922 3.11121 430.723C-453.889 207.525 3.11121 -531 3.11121 -531Z" fill="#FAB18B"/>
<path d="M-17.8888 -418H1902.11C1902.11 -418 2579.11 788.072 1902.11 510.723C1225.11 233.374 439.111 726.263 -17.8888 510.723C-474.889 295.183 -17.8888 -418 -17.8888 -418Z" fill="#97D1B1"/>
<g filter="url(#filter0_d_531_51)">
<path d="M3.11121 -482H1923.11C1923.11 -482 2600.11 766.927 1923.11 479.723C1246.11 192.519 460.111 702.922 3.11121 479.723C-453.889 256.525 3.11121 -482 3.11121 -482Z" fill="#A1C1D1"/>
</g>
<g filter="url(#filter1_d_531_51)">
<path d="M3.11121 -531H1923.11C1923.11 -531 2600.11 717.927 1923.11 430.723C1246.11 143.519 460.111 653.922 3.11121 430.723C-453.889 207.525 3.11121 -531 3.11121 -531Z" fill="#FAB18B"/>
</g>
<g filter="url(#filter2_d_531_51)">
<path d="M3.11121 -580H1923.11C1923.11 -580 2600.11 638.316 1923.11 358.151C1246.11 77.9868 460.111 575.879 3.11121 358.151C-453.889 140.423 3.11121 -580 3.11121 -580Z" fill="#C76E7A"/>
</g>
<g filter="url(#filter3_d_531_51)">
<path d="M3.11121 -1651H1923.11C1923.11 -1651 2600.11 750.124 1923.11 197.96C1246.11 -354.204 460.111 627.07 3.11121 197.96C-453.889 -231.15 3.11121 -1651 3.11121 -1651Z" fill="#EAE5D9"/>
</g>
</g>
<defs>
<filter id="filter0_d_531_51" x="-204" y="-482" width="2432" height="1028" filterUnits="userSpaceOnUse" color-interpolation-filters="sRGB">
<feFlood flood-opacity="0" result="BackgroundImageFix"/>
<feColorMatrix in="SourceAlpha" type="matrix" values="0 0 0 0 0 0 0 0 0 0 0 0 0 0 0 0 0 0 127 0" result="hardAlpha"/>
<feOffset dy="4"/>
<feGaussianBlur stdDeviation="2"/>
<feComposite in2="hardAlpha" operator="out"/>
<feColorMatrix type="matrix" values="0 0 0 0 0 0 0 0 0 0 0 0 0 0 0 0 0 0 0.25 0"/>
<feBlend mode="normal" in2="BackgroundImageFix" result="effect1_dropShadow_531_51"/>
<feBlend mode="normal" in="SourceGraphic" in2="effect1_dropShadow_531_51" result="shape"/>
</filter>
<filter id="filter1_d_531_51" x="-204" y="-531" width="2432" height="1028" filterUnits="userSpaceOnUse" color-interpolation-filters="sRGB">
<feFlood flood-opacity="0" result="BackgroundImageFix"/>
<feColorMatrix in="SourceAlpha" type="matrix" values="0 0 0 0 0 0 0 0 0 0 0 0 0 0 0 0 0 0 127 0" result="hardAlpha"/>
<feOffset dy="4"/>
<feGaussianBlur stdDeviation="2"/>
<feComposite in2="hardAlpha" operator="out"/>
<feColorMatrix type="matrix" values="0 0 0 0 0 0 0 0 0 0 0 0 0 0 0 0 0 0 0.25 0"/>
<feBlend mode="normal" in2="BackgroundImageFix" result="effect1_dropShadow_531_51"/>
<feBlend mode="normal" in="SourceGraphic" in2="effect1_dropShadow_531_51" result="shape"/>
</filter>
<filter id="filter2_d_531_51" x="-204" y="-580" width="2432" height="1003" filterUnits="userSpaceOnUse" color-interpolation-filters="sRGB">
<feFlood flood-opacity="0" result="BackgroundImageFix"/>
<feColorMatrix in="SourceAlpha" type="matrix" values="0 0 0 0 0 0 0 0 0 0 0 0 0 0 0 0 0 0 127 0" result="hardAlpha"/>
<feOffset dy="4"/>
<feGaussianBlur stdDeviation="2"/>
<feComposite in2="hardAlpha" operator="out"/>
<feColorMatrix type="matrix" values="0 0 0 0 0 0 0 0 0 0 0 0 0 0 0 0 0 0 0.25 0"/>
<feBlend mode="normal" in2="BackgroundImageFix" result="effect1_dropShadow_531_51"/>
<feBlend mode="normal" in="SourceGraphic" in2="effect1_dropShadow_531_51" result="shape"/>
</filter>
<filter id="filter3_d_531_51" x="-205" y="-1651" width="2444" height="1981" filterUnits="userSpaceOnUse" color-interpolation-filters="sRGB">
<feFlood flood-opacity="0" result="BackgroundImageFix"/>
<feColorMatrix in="SourceAlpha" type="matrix" values="0 0 0 0 0 0 0 0 0 0 0 0 0 0 0 0 0 0 127 0" result="hardAlpha"/>
<feOffset dx="5" dy="10"/>
<feGaussianBlur stdDeviation="5"/>
<feComposite in2="hardAlpha" operator="out"/>
<feColorMatrix type="matrix" values="0 0 0 0 0 0 0 0 0 0 0 0 0 0 0 0 0 0 0.25 0"/>
<feBlend mode="normal" in2="BackgroundImageFix" result="effect1_dropShadow_531_51"/>
<feBlend mode="normal" in="SourceGraphic" in2="effect1_dropShadow_531_51" result="shape"/>
</filter>
</defs>
</svg>
