<svg width="132" height="132" viewBox="0 0 132 132" fill="none" xmlns="http://www.w3.org/2000/svg">
<g filter="url(#filter0_d_471_128)">
<path opacity="0.4" d="M92.4002 11H34.1552C21.3952 11 11.0552 21.34 11.0552 34.045V68.035V69.08C11.0552 81.84 21.3952 92.125 34.1002 92.125H53.9002C56.9252 92.125 59.4002 94.6 59.4002 97.625V102.135C59.4002 105.16 56.9252 107.635 53.9002 107.635H41.5252C39.3802 107.635 37.6202 109.395 37.6202 111.54C37.6202 113.685 39.3802 115.445 41.5252 115.445H85.1402C87.2852 115.445 89.0452 113.685 89.0452 111.54C89.0452 109.395 87.2852 107.635 85.1402 107.635H72.7652C69.7402 107.635 67.2652 105.16 67.2652 102.135V97.625C67.2652 94.6 69.7402 92.125 72.7652 92.125H92.4002C105.16 92.125 115.445 81.785 115.445 69.08V68.035V34.045C115.445 21.34 105.105 11 92.4002 11Z" fill="#C76E7A"/>
<path d="M108.02 52.25H78.9248C69.4098 52.25 65.9448 55.715 65.9448 65.34V107.855C65.9448 117.535 69.3548 120.945 78.9248 120.945H108.02C117.535 120.945 121 117.48 121 107.855V65.34C121 55.66 117.59 52.25 108.02 52.25ZM93.4998 111.76C90.1448 111.76 87.4498 109.065 87.4498 105.71C87.4498 102.355 90.1448 99.66 93.4998 99.66C96.8548 99.66 99.5498 102.355 99.5498 105.71C99.5498 109.065 96.8548 111.76 93.4998 111.76Z" fill="#C76E7A"/>
<path opacity="0.4" d="M99.5502 105.71C99.5502 109.065 96.8552 111.76 93.5002 111.76C90.1452 111.76 87.4502 109.065 87.4502 105.71C87.4502 102.355 90.1452 99.6602 93.5002 99.6602C96.8552 99.6602 99.5502 102.41 99.5502 105.71Z" fill="#C76E7A"/>
</g>
<defs>
<filter id="filter0_d_471_128" x="-4" y="0" width="140" height="143" filterUnits="userSpaceOnUse" color-interpolation-filters="sRGB">
<feFlood flood-opacity="0" result="BackgroundImageFix"/>
<feColorMatrix in="SourceAlpha" type="matrix" values="0 0 0 0 0 0 0 0 0 0 0 0 0 0 0 0 0 0 127 0" result="hardAlpha"/>
<feOffset dy="7"/>
<feGaussianBlur stdDeviation="2"/>
<feComposite in2="hardAlpha" operator="out"/>
<feColorMatrix type="matrix" values="0 0 0 0 0 0 0 0 0 0 0 0 0 0 0 0 0 0 0.25 0"/>
<feBlend mode="normal" in2="BackgroundImageFix" result="effect1_dropShadow_471_128"/>
<feBlend mode="normal" in="SourceGraphic" in2="effect1_dropShadow_471_128" result="shape"/>
</filter>
</defs>
</svg>
