<svg width="1852" height="708" viewBox="0 0 1852 708" fill="none" xmlns="http://www.w3.org/2000/svg">
<mask id="mask0_531_51" style="mask-type:alpha" maskUnits="userSpaceOnUse" x="0" y="0" width="1852" height="708">
<rect width="1852" height="708" fill="white"/>
</mask>
<g mask="url(#mask0_531_51)">
<path d="M-88.7373 -2376H1830.61C1830.61 -2376 2222.98 86.9387 1830.61 539.477C1438.25 992.015 382.104 370.906 -88.7373 539.477C-559.578 708.047 -88.7373 -2376 -88.7373 -2376Z" fill="#FAB18B"/>
<g filter="url(#filter0_d_531_51)">
<path d="M-88.7372 -2497H1830.61C1830.61 -2497 2222.98 -34.0613 1830.61 418.477C1438.25 871.015 382.104 249.906 -88.7372 418.477C-559.578 587.047 -88.7372 -2497 -88.7372 -2497Z" fill="#C76E7A"/>
</g>
<g filter="url(#filter1_d_531_51)">
<path d="M-13.4565 -2456H1752.55C1752.55 -2456 2113.57 -189.521 1752.55 226.919C1391.53 643.36 419.766 71.7952 -13.4565 226.919C-446.679 382.043 -13.4565 -2456 -13.4565 -2456Z" fill="white"/>
</g>
</g>
<defs>
<filter id="filter0_d_531_51" x="-308" y="-2497" width="2323" height="3104" filterUnits="userSpaceOnUse" color-interpolation-filters="sRGB">
<feFlood flood-opacity="0" result="BackgroundImageFix"/>
<feColorMatrix in="SourceAlpha" type="matrix" values="0 0 0 0 0 0 0 0 0 0 0 0 0 0 0 0 0 0 127 0" result="hardAlpha"/>
<feOffset dy="10"/>
<feGaussianBlur stdDeviation="5"/>
<feComposite in2="hardAlpha" operator="out"/>
<feColorMatrix type="matrix" values="0 0 0 0 0 0 0 0 0 0 0 0 0 0 0 0 0 0 0.25 0"/>
<feBlend mode="normal" in2="BackgroundImageFix" result="effect1_dropShadow_531_51"/>
<feBlend mode="normal" in="SourceGraphic" in2="effect1_dropShadow_531_51" result="shape"/>
</filter>
<filter id="filter1_d_531_51" x="-216" y="-2456" width="2139" height="2858" filterUnits="userSpaceOnUse" color-interpolation-filters="sRGB">
<feFlood flood-opacity="0" result="BackgroundImageFix"/>
<feColorMatrix in="SourceAlpha" type="matrix" values="0 0 0 0 0 0 0 0 0 0 0 0 0 0 0 0 0 0 127 0" result="hardAlpha"/>
<feOffset dy="10"/>
<feGaussianBlur stdDeviation="5"/>
<feComposite in2="hardAlpha" operator="out"/>
<feColorMatrix type="matrix" values="0 0 0 0 0 0 0 0 0 0 0 0 0 0 0 0 0 0 0.25 0"/>
<feBlend mode="normal" in2="BackgroundImageFix" result="effect1_dropShadow_531_51"/>
<feBlend mode="normal" in="SourceGraphic" in2="effect1_dropShadow_531_51" result="shape"/>
</filter>
</defs>
</svg>
